<?xml version="1.0" encoding="UTF-8" standalone="no"?><!DOCTYPE svg PUBLIC "-//W3C//DTD SVG 1.1//EN" "http://www.w3.org/Graphics/SVG/1.1/DTD/svg11.dtd"><svg width="100%" height="100%" viewBox="0 0 450 453" version="1.1" xmlns="http://www.w3.org/2000/svg" xmlns:xlink="http://www.w3.org/1999/xlink" xml:space="preserve" xmlns:serif="http://www.serif.com/" style="fill-rule:evenodd;clip-rule:evenodd;stroke-linejoin:round;stroke-miterlimit:2;"><g transform="matrix(3,0,0,3,0,-1131)"><g id="Close" transform="matrix(1,0,0,1,-18,201.324)"><rect x="18" y="176" width="150" height="150" style="fill:none;"/><g transform="matrix(1,0,0,1,18,-201.324)"><path d="M75,440.014c1.088,-0.996 2.181,-1.98 3.275,-2.956c5.06,-4.518 10.091,-8.791 15.026,-12.786c8.813,-7.134 16.926,-13.162 23.571,-18.147c9.837,-7.379 16.07,-11.742 16.07,-11.742c-0,-0 -4.364,6.232 -11.743,16.069c-4.984,6.645 -11.012,14.759 -18.147,23.571c-3.995,4.935 -8.267,9.967 -12.785,15.027c-0.987,1.105 -1.982,2.21 -2.988,3.309c0.989,1.094 1.966,2.193 2.934,3.293c4.488,5.101 8.658,10.211 12.663,15.15c4.489,5.537 8.545,10.74 12.243,15.569c10.868,14.189 17.823,23.895 17.823,23.895c-0,-0 -9.707,-6.955 -23.896,-17.823c-4.828,-3.698 -10.032,-7.754 -15.568,-12.243c-4.939,-4.005 -10.05,-8.175 -15.15,-12.662c-1.112,-0.979 -2.223,-1.967 -3.328,-2.966c-1.105,0.999 -2.216,1.987 -3.328,2.966c-5.1,4.487 -10.211,8.657 -15.15,12.662c-5.536,4.489 -10.74,8.545 -15.568,12.243c-14.189,10.868 -23.896,17.823 -23.896,17.823c0,-0 6.955,-9.706 17.823,-23.895c3.698,-4.829 7.754,-10.032 12.243,-15.569c4.005,-4.939 8.175,-10.049 12.663,-15.15c0.968,-1.1 1.945,-2.199 2.934,-3.293c-1.006,-1.099 -2.001,-2.204 -2.988,-3.309c-4.518,-5.06 -8.79,-10.092 -12.785,-15.027c-7.135,-8.812 -13.163,-16.926 -18.147,-23.571c-7.379,-9.837 -11.743,-16.069 -11.743,-16.069c0,-0 6.233,4.363 16.07,11.742c6.645,4.985 14.758,11.013 23.571,18.147c4.935,3.995 9.966,8.268 15.026,12.786c1.094,0.976 2.187,1.96 3.275,2.956Z" style="fill:#eb300f;"/></g></g></g></svg>