<?xml version="1.0" encoding="UTF-8" standalone="no"?><!DOCTYPE svg PUBLIC "-//W3C//DTD SVG 1.1//EN" "http://www.w3.org/Graphics/SVG/1.1/DTD/svg11.dtd"><svg width="100%" height="100%" viewBox="0 0 453 453" version="1.1" xmlns="http://www.w3.org/2000/svg" xmlns:xlink="http://www.w3.org/1999/xlink" xml:space="preserve" xmlns:serif="http://www.serif.com/" style="fill-rule:evenodd;clip-rule:evenodd;stroke-linejoin:round;stroke-miterlimit:2;"><rect id="FullScreen" x="1.698" y="0.973" width="450" height="450" style="fill:none;"/><g><path d="M63.971,95.191l-0,32.254c-0,8.048 -6.535,14.583 -14.584,14.583c-8.048,0 -14.583,-6.535 -14.583,-14.583l-0,-82.044l82.044,-0c8.049,-0 14.583,6.534 14.583,14.583c0,8.049 -6.534,14.583 -14.583,14.583l-32.253,0l102.217,102.218c5.692,5.691 5.692,14.933 0,20.624c-5.691,5.691 -14.932,5.691 -20.624,0l-102.217,-102.218Z" style="fill:#eb300f;"/><path d="M389.249,95.191l0,32.254c0,8.048 6.535,14.583 14.583,14.583c8.049,0 14.584,-6.535 14.584,-14.583l-0,-82.044l-82.044,-0c-8.049,-0 -14.584,6.534 -14.584,14.583c0,8.049 6.535,14.583 14.584,14.583l32.253,0l-102.218,102.218c-5.691,5.691 -5.691,14.933 0,20.624c5.692,5.691 14.933,5.691 20.624,0l102.218,-102.218Z" style="fill:#eb300f;"/><path d="M63.971,372.307l-0,-32.253c-0,-8.049 -6.535,-14.583 -14.584,-14.583c-8.048,-0 -14.583,6.534 -14.583,14.583l-0,82.044l82.044,0c8.049,0 14.583,-6.535 14.583,-14.583c0,-8.049 -6.534,-14.584 -14.583,-14.584l-32.253,0l102.217,-102.217c5.692,-5.692 5.692,-14.933 0,-20.624c-5.691,-5.692 -14.932,-5.692 -20.624,-0l-102.217,102.217Z" style="fill:#eb300f;"/><path d="M389.249,372.307l0,-32.253c0,-8.049 6.535,-14.583 14.583,-14.583c8.049,-0 14.584,6.534 14.584,14.583l-0,82.044l-82.044,0c-8.049,0 -14.584,-6.535 -14.584,-14.583c0,-8.049 6.535,-14.584 14.584,-14.584l32.253,0l-102.218,-102.217c-5.691,-5.692 -5.691,-14.933 0,-20.624c5.692,-5.692 14.933,-5.692 20.624,-0l102.218,102.217Z" style="fill:#eb300f;"/></g></svg>