<?xml version="1.0" encoding="UTF-8" standalone="no"?><!DOCTYPE svg PUBLIC "-//W3C//DTD SVG 1.1//EN" "http://www.w3.org/Graphics/SVG/1.1/DTD/svg11.dtd"><svg width="100%" height="100%" viewBox="0 0 453 453" version="1.1" xmlns="http://www.w3.org/2000/svg" xmlns:xlink="http://www.w3.org/1999/xlink" xml:space="preserve" xmlns:serif="http://www.serif.com/" style="fill-rule:evenodd;clip-rule:evenodd;stroke-linecap:round;stroke-miterlimit:1.5;"><g transform="matrix(3,0,0,3,-2109,-588)"><g id="ListToggle" transform="matrix(1,0,0,1,330.76,-9.95659)"><rect x="372.378" y="206.178" width="150" height="150" style="fill:none;"/><g transform="matrix(1,0,0,1,14.9992,0)"><path d="M492.753,346.553l-0,-130.75l-120.749,0l0,130.75l120.749,0Zm-110.886,-119.506l0,108.263l50.512,-0l-0,-108.263l-50.512,-0Zm61.453,-0l-0,108.263l38.116,-0l-0,-108.263l-38.116,-0Z" style="fill:#eb300f;"/><g transform="matrix(1,0,0,1,-330.76,52.2559)"><path d="M778.5,235.075l28.789,-0" style="fill:none;stroke:#eb300f;stroke-width:4.17px;"/></g><g transform="matrix(1,0,0,1,-330.76,65.2138)"><path d="M778.5,235.075l28.789,-0" style="fill:none;stroke:#eb300f;stroke-width:4.17px;"/></g><g transform="matrix(1,0,0,1,-330.76,10.4244)"><path d="M778.5,235.075l28.789,-0" style="fill:none;stroke:#eb300f;stroke-width:4.17px;"/></g><g transform="matrix(1,0,0,1,-330.76,23.3822)"><path d="M778.5,235.075l28.789,-0" style="fill:none;stroke:#eb300f;stroke-width:4.17px;"/></g></g></g></g></svg>