<?xml version="1.0" encoding="UTF-8" standalone="no"?><!DOCTYPE svg PUBLIC "-//W3C//DTD SVG 1.1//EN" "http://www.w3.org/Graphics/SVG/1.1/DTD/svg11.dtd"><svg width="100%" height="100%" viewBox="0 0 453 453" version="1.1" xmlns="http://www.w3.org/2000/svg" xmlns:xlink="http://www.w3.org/1999/xlink" xml:space="preserve" xmlns:serif="http://www.serif.com/" style="fill-rule:evenodd;clip-rule:evenodd;stroke-linejoin:round;stroke-miterlimit:2;"><g transform="matrix(3,0,0,3,-1023,-1131)"><g id="Maximize" transform="matrix(1,0,0,1,-30.744,171.146)"><rect x="372.378" y="206.178" width="150" height="150" style="fill:none;"/><g transform="matrix(1.27284,0,0,1.27284,-121.24,-80.202)"><g transform="matrix(1,0,0,1,30.744,-171.146)"><path d="M395.96,458.292l0,-25.162l61.666,0l0,35.076l-24.833,-0l0,9.722l34.555,0l0,-64.52l-81.11,-0l-0,44.884l9.722,0Z" style="fill:#eb300f;"/></g><g transform="matrix(0.785644,0,0,0.785644,144.575,-103.846)"><path d="M341.166,445.452l6.565,-2.873l0,5.745l-6.565,-2.872Zm114.372,-0l-6.566,-2.873l0,5.745l6.566,-2.872Z" style="fill:#eb300f;"/></g><g transform="matrix(0.785644,0,0,0.785644,144.575,-46.2271)"><path d="M455.538,445.452l-6.566,-2.873l0,5.745l6.566,-2.872Z" style="fill:#eb300f;"/></g><path d="M469.366,279.746l0,-3.429l-73.996,0l-0,3.429l-4.373,1.913l4.373,1.913l-0,35.471l-4.373,1.914l4.373,1.913l-0,2.7l73.996,0l0,-2.7l4.373,-1.913l-4.373,-1.914l0,-35.471l4.373,-1.913l-4.373,-1.913Zm-67.167,8.4l-0,30.596l60.338,-0l0,-30.596l-60.338,0Z" style="fill:#eb300f;"/></g><g transform="matrix(6.12323e-17,-1,1,6.12323e-17,-20.3559,685.456)"><path d="M345.693,449.452l6.566,-2.873l-0,5.745l-6.566,-2.872Z" style="fill:#eb300f;"/></g></g></g></svg>