<?xml version="1.0" encoding="UTF-8" standalone="no"?><!DOCTYPE svg PUBLIC "-//W3C//DTD SVG 1.1//EN" "http://www.w3.org/Graphics/SVG/1.1/DTD/svg11.dtd"><svg width="100%" height="100%" viewBox="0 0 453 453" version="1.1" xmlns="http://www.w3.org/2000/svg" xmlns:xlink="http://www.w3.org/1999/xlink" xml:space="preserve" xmlns:serif="http://www.serif.com/" style="fill-rule:evenodd;clip-rule:evenodd;stroke-linejoin:round;stroke-miterlimit:2;"><g transform="matrix(3,0,0,3,-1023,-588)"><g id="Menu" transform="matrix(1,0,0,1,-30.744,-9.95659)"><rect x="372.378" y="206.178" width="150" height="150" style="fill:none;"/><g transform="matrix(6.12323e-17,-1,1,6.12323e-17,372.378,648.866)"><path d="M416.634,9.495l8.165,60.038l10.185,5.467l-10.185,5.467l-8.165,60.038l-8.165,-60.038l-10.186,-5.467l10.186,-5.467l8.165,-60.038Z" style="fill:#343539;"/></g><g transform="matrix(6.12323e-17,-1,1,6.12323e-17,372.378,696.862)"><path d="M416.634,9.495l8.165,60.038l10.185,5.467l-10.185,5.467l-8.165,60.038l-8.165,-60.038l-10.186,-5.467l10.186,-5.467l8.165,-60.038Z" style="fill:#343539;"/></g><g transform="matrix(6.12323e-17,-1,1,6.12323e-17,372.378,746.758)"><path d="M416.634,9.495l8.165,60.038l10.185,5.467l-10.185,5.467l-8.165,60.038l-8.165,-60.038l-10.186,-5.467l10.186,-5.467l8.165,-60.038Z" style="fill:#eb300f;"/></g></g></g></svg>