<?xml version="1.0" encoding="UTF-8" standalone="no"?><!DOCTYPE svg PUBLIC "-//W3C//DTD SVG 1.1//EN" "http://www.w3.org/Graphics/SVG/1.1/DTD/svg11.dtd"><svg width="100%" height="100%" viewBox="0 0 453 453" version="1.1" xmlns="http://www.w3.org/2000/svg" xmlns:xlink="http://www.w3.org/1999/xlink" xml:space="preserve" xmlns:serif="http://www.serif.com/" style="fill-rule:evenodd;clip-rule:evenodd;stroke-linecap:round;stroke-miterlimit:3;"><rect id="Settings" x="0.413" y="0.973" width="450" height="450" style="fill:none;"/><path d="M242.775,47.295c-11.548,-1.122 -23.177,-1.122 -34.725,-0l-5.599,28.626c-11.01,1.685 -21.802,4.576 -32.18,8.623l-19.162,-21.992c-10.561,4.802 -20.632,10.617 -30.072,17.362l9.464,27.591c-8.693,6.964 -16.593,14.864 -23.557,23.557l-27.59,-9.464c-6.746,9.439 -12.56,19.511 -17.363,30.072l21.992,19.162c-4.046,10.378 -6.938,21.17 -8.623,32.18l-28.626,5.599c-1.122,11.548 -1.122,23.177 0,34.724l28.626,5.599c1.685,11.011 4.577,21.803 8.623,32.18l-21.992,19.162c4.803,10.562 10.617,20.633 17.363,30.072l27.59,-9.464c6.964,8.693 14.864,16.593 23.557,23.558l-9.464,27.59c9.44,6.746 19.511,12.56 30.072,17.362l19.162,-21.991c10.378,4.046 21.17,6.938 32.18,8.623l5.599,28.626c11.548,1.122 23.177,1.122 34.725,-0l5.599,-28.626c11.01,-1.685 21.802,-4.577 32.18,-8.623l19.162,21.991c10.561,-4.802 20.632,-10.616 30.072,-17.362l-9.464,-27.59c8.693,-6.965 16.593,-14.865 23.557,-23.558l27.59,9.464c6.746,-9.439 12.561,-19.51 17.363,-30.072l-21.992,-19.162c4.046,-10.377 6.938,-21.169 8.623,-32.18l28.626,-5.599c1.122,-11.547 1.122,-23.176 -0,-34.724l-28.626,-5.599c-1.685,-11.01 -4.577,-21.802 -8.623,-32.18l21.992,-19.162c-4.802,-10.561 -10.617,-20.633 -17.363,-30.072l-27.59,9.464c-6.964,-8.693 -14.864,-16.593 -23.557,-23.557l9.464,-27.591c-9.44,-6.745 -19.511,-12.56 -30.072,-17.362l-19.162,21.992c-10.378,-4.047 -21.17,-6.938 -32.18,-8.623l-5.599,-28.626Zm-17.362,137.983c22.46,0 40.694,18.235 40.694,40.695c0,22.46 -18.234,40.695 -40.694,40.695c-22.461,0 -40.695,-18.235 -40.695,-40.695c-0,-22.46 18.234,-40.695 40.695,-40.695Z" style="fill:none;stroke:#eb300f;stroke-width:25px;"/></svg>