<?xml version="1.0" encoding="UTF-8" standalone="no"?><!DOCTYPE svg PUBLIC "-//W3C//DTD SVG 1.1//EN" "http://www.w3.org/Graphics/SVG/1.1/DTD/svg11.dtd"><svg width="100%" height="100%" viewBox="0 0 453 453" version="1.1" xmlns="http://www.w3.org/2000/svg" xmlns:xlink="http://www.w3.org/1999/xlink" xml:space="preserve" xmlns:serif="http://www.serif.com/" style="fill-rule:evenodd;clip-rule:evenodd;stroke-linejoin:round;stroke-miterlimit:2;"><g transform="matrix(3,0,0,3,-1023,-1686)"><g id="StayOnTop" transform="matrix(1,0,0,1,-30.744,356.175)"><rect x="372.378" y="206.178" width="150" height="150" style="fill:none;"/><g transform="matrix(0.609834,0,0,0.609834,193.3,241.604)"><path d="M416.634,9.495l8.165,60.038l10.185,5.467l-10.185,5.467l-8.165,60.038l-8.165,-60.038l-10.186,-5.467l10.186,-5.467l8.165,-60.038Z" style="fill:#eb300f;"/></g><g transform="matrix(0.734043,0,0,1,141.551,-369.952)"><path d="M447.565,605.02l-61.863,-0l8.293,9.501c3.398,12.567 0.375,24.125 -8.293,34.795l-15.944,7.977l93.752,0l-15.945,-7.977c-8.82,-10.646 -11.538,-22.252 -8.293,-34.795l8.293,-9.501Z" style="fill:#eb300f;"/></g></g></g></svg>