<?xml version="1.0" encoding="UTF-8" standalone="no"?><!DOCTYPE svg PUBLIC "-//W3C//DTD SVG 1.1//EN" "http://www.w3.org/Graphics/SVG/1.1/DTD/svg11.dtd"><svg width="100%" height="100%" viewBox="0 0 453 450" version="1.1" xmlns="http://www.w3.org/2000/svg" xmlns:xlink="http://www.w3.org/1999/xlink" xml:space="preserve" xmlns:serif="http://www.serif.com/" style="fill-rule:evenodd;clip-rule:evenodd;stroke-linejoin:round;stroke-miterlimit:2;"><g transform="matrix(3,0,0,3,-492,0)"><g id="Stop" transform="matrix(1,0,0,1,146.526,-176)"><rect x="18" y="176" width="150" height="150" style="fill:none;"/><g transform="matrix(0.857857,0.857857,-0.857857,0.857857,-48.1399,-18.8184)"><path d="M239.526,18.273l20.146,36.581l36.581,20.146l-36.581,20.146l-20.146,36.581l-20.146,-36.581l-36.581,-20.146l36.581,-20.146l20.146,-36.581Z" style="fill:#eb300f;"/></g><g transform="matrix(1,0,0,1,-323.634,176)"><path d="M416.634,9.495l8.165,60.038l10.185,5.467l-10.185,5.467l-8.165,60.038l-8.165,-60.038l-10.186,-5.467l10.186,-5.467l8.165,-60.038Z" style="fill:#eb300f;"/></g></g></g></svg>