<?xml version="1.0" encoding="UTF-8" standalone="no"?><!DOCTYPE svg PUBLIC "-//W3C//DTD SVG 1.1//EN" "http://www.w3.org/Graphics/SVG/1.1/DTD/svg11.dtd"><svg width="100%" height="100%" viewBox="0 0 453 453" version="1.1" xmlns="http://www.w3.org/2000/svg" xmlns:xlink="http://www.w3.org/1999/xlink" xml:space="preserve" xmlns:serif="http://www.serif.com/" style="fill-rule:evenodd;clip-rule:evenodd;stroke-linejoin:round;stroke-miterlimit:2;"><g transform="matrix(3,0,0,3,-492,-1131)"><g id="Minimize" transform="matrix(1,0,0,1,146.526,201.324)"><rect x="18" y="176" width="150" height="150" style="fill:none;"/><g transform="matrix(-1.2433,-1.2433,-1.2433,1.2433,1218.38,701.959)"><path d="M606.841,244.128c0,0 2.914,2.04 7.514,5.491c3.107,2.331 6.901,5.149 11.022,8.485c2.307,1.868 4.66,3.866 7.026,5.979c1.515,1.352 3.029,2.737 4.477,4.193c1.449,1.457 2.827,2.977 4.168,4.502c2.099,2.385 4.049,4.774 5.921,7.084c2.099,2.589 3.996,5.022 5.725,7.28c5.082,6.634 8.334,11.173 8.334,11.173c-0,0 -4.539,-3.252 -11.173,-8.334c-2.258,-1.729 -4.691,-3.626 -7.28,-5.725c-2.31,-1.872 -4.699,-3.822 -7.084,-5.921c-1.525,-1.341 -3.045,-2.719 -4.502,-4.168c-1.456,-1.448 -2.841,-2.962 -4.193,-4.477c-2.113,-2.366 -4.111,-4.719 -5.979,-7.026c-3.336,-4.121 -6.154,-7.915 -8.485,-11.022c-3.451,-4.6 -5.491,-7.514 -5.491,-7.514Z" style="fill:#eb300f;"/></g></g></g></svg>