<?xml version="1.0" standalone="no"?>
<!DOCTYPE svg PUBLIC "-//W3C//DTD SVG 20010904//EN"
 "http://www.w3.org/TR/2001/REC-SVG-20010904/DTD/svg10.dtd">
<svg version="1.0" xmlns="http://www.w3.org/2000/svg"
 width="468pt" height="465pt" viewBox="0 0 468 465"
 preserveAspectRatio="xMidYMid meet">
<metadata>
Created by POTRACE VERSION, written by Peter Selinger 2001-2007
</metadata>
<g transform="translate(0,465) scale(0.103311,-0.103311)"
fill="#eb300f" stroke="none">
<path d="M1493 4258 l-41 -43 -117 -865 c-64 -476 -118 -872 -121 -880 -2 -8
-57 -43 -122 -77 -69 -36 -133 -78 -157 -102 l-39 -41 39 -41 c24 -24 88 -66
157 -102 65 -34 120 -69 122 -77 3 -8 57 -404 121 -880 l117 -865 42 -43 42
-42 45 47 46 48 117 870 c65 479 121 873 124 877 4 3 54 31 112 62 64 33 122
73 150 101 l44 45 -44 45 c-28 28 -86 68 -150 101 -58 31 -108 59 -112 62 -3
4 -59 399 -124 877 l-117 870 -46 48 -47 47 -41 -42z"/>
<path d="M2959 4255 l-34 -36 -120 -882 -120 -882 -124 -67 c-68 -36 -140 -83
-160 -102 l-36 -36 36 -36 c20 -19 92 -66 160 -102 l124 -67 120 -882 120
-883 38 -37 37 -38 38 40 39 40 119 881 119 881 115 61 c67 35 132 78 155 101
l39 41 -39 41 c-23 23 -88 66 -155 101 l-115 61 -119 881 -119 881 -36 38
c-19 20 -38 37 -41 37 -3 0 -22 -16 -41 -35z"/>
</g>
</svg>
