<?xml version="1.0" encoding="UTF-8" standalone="no"?><!DOCTYPE svg PUBLIC "-//W3C//DTD SVG 1.1//EN" "http://www.w3.org/Graphics/SVG/1.1/DTD/svg11.dtd"><svg width="100%" height="100%" viewBox="0 0 453 453" version="1.1" xmlns="http://www.w3.org/2000/svg" xmlns:xlink="http://www.w3.org/1999/xlink" xml:space="preserve" xmlns:serif="http://www.serif.com/" style="fill-rule:evenodd;clip-rule:evenodd;stroke-linejoin:round;stroke-miterlimit:2;"><g transform="matrix(3,0,0,3,-492,-588)"><g id="Speaker" transform="matrix(1,0,0,1,146.526,20.2216)"><rect x="18" y="176" width="150" height="150" style="fill:none;"/><g transform="matrix(0.871666,0,0,0.871666,16.1519,32.2119)"><g transform="matrix(1.92715,0,0,3.6076,-1166.33,-763.379)"><path d="M634.006,271.449l-19.459,-0l5.953,9.729l-5.953,9.73l19.459,-0l0,-19.459Z" style="fill:#eb300f;"/></g><g transform="matrix(1.92715,0,0,3.6076,-1128.83,-763.379)"><path d="M634.006,260.389l-19.718,11.06l-0,19.459l19.718,11.06l0,-41.579Z" style="fill:#eb300f;"/></g><g transform="matrix(1.13154,0,0,1.17531,-184.185,-56.8323)"><path d="M299.026,256.924c0.584,2.644 1.195,5.271 1.81,7.72c1.666,6.636 3.198,11.659 3.198,11.659c0.013,0.113 0.118,0.194 0.235,0.181c0.117,-0.013 0.201,-0.114 0.188,-0.227c0,0 0.326,-5.226 0.408,-12.053c0.045,-3.79 -0.009,-7.974 -0.118,-11.995c-0.095,-3.524 -0.248,-6.85 -0.423,-9.561c-0.246,-3.808 -0.538,-6.346 -0.538,-6.346l-2.779,-23.615l-5.521,23.164l-7.934,33.947c-0,-0 -6.347,-66.219 -6.347,-66.219l-4.27,24.691l-8.091,50.574c-0,-0 -5.911,-42.086 -5.911,-42.086l-2.39,7.825l-7.743,26.678c-0,0 -0.63,-12.455 -0.63,-12.455l-1.798,3.029l-6.161,10.71c-0.237,0.4 -0.093,0.91 0.322,1.138c0.416,0.229 0.946,0.09 1.183,-0.31l4.611,-7.529c0,0 0.644,20.426 0.644,20.426l2.184,-7.154l8.267,-25.775c-0,-0 6.943,57.936 6.943,57.936l2.741,-15.848l7.744,-41.654c0,-0 5.346,64.625 5.346,64.625l5.641,-23.666l9.189,-37.81Z" style="fill:#0cd157;"/></g></g></g></g></svg>