<?xml version="1.0" encoding="UTF-8" standalone="no"?><!DOCTYPE svg PUBLIC "-//W3C//DTD SVG 1.1//EN" "http://www.w3.org/Graphics/SVG/1.1/DTD/svg11.dtd"><svg width="100%" height="100%" viewBox="0 0 453 453" version="1.1" xmlns="http://www.w3.org/2000/svg" xmlns:xlink="http://www.w3.org/1999/xlink" xml:space="preserve" xmlns:serif="http://www.serif.com/" style="fill-rule:evenodd;clip-rule:evenodd;stroke-linejoin:round;stroke-miterlimit:2;"><g transform="matrix(3,0,0,3,-1569,-588)"><g id="SpeakerMuted" transform="matrix(1,0,0,1,505.566,20.2216)"><rect x="18" y="176" width="150" height="150" style="fill:none;"/><g transform="matrix(0.871666,0,0,0.871666,13.4042,32.2119)"><g transform="matrix(1.92715,0,0,3.6076,-1166.33,-763.379)"><path d="M634.006,271.449l-19.459,-0l5.953,9.729l-5.953,9.73l19.459,-0l0,-19.459Z" style="fill:#eb300f;"/></g><g transform="matrix(1.92715,0,0,3.6076,-1128.83,-763.379)"><path d="M634.006,260.389l-19.718,11.06l-0,19.459l19.718,11.06l0,-41.579Z" style="fill:#eb300f;"/></g><g transform="matrix(1.29551,0,0,1.29551,-689.375,-100.369)"><path d="M606.841,244.128c0,0 2.04,2.914 5.491,7.514c2.331,3.107 5.149,6.901 8.485,11.022c1.868,2.307 3.866,4.66 5.979,7.026c1.352,1.515 2.737,3.029 4.193,4.477c1.457,1.449 2.977,2.827 4.502,4.168c2.385,2.099 4.774,4.049 7.084,5.921c2.589,2.099 5.022,3.996 7.28,5.725c6.634,5.082 11.173,8.334 11.173,8.334c-0,0 -3.252,-4.539 -8.334,-11.173c-1.729,-2.258 -3.626,-4.691 -5.725,-7.28c-1.872,-2.31 -3.822,-4.699 -5.921,-7.084c-1.341,-1.525 -2.719,-3.045 -4.168,-4.502c-1.448,-1.456 -2.962,-2.841 -4.477,-4.193c-2.366,-2.113 -4.719,-4.111 -7.026,-5.979c-4.121,-3.336 -7.915,-6.154 -11.022,-8.485c-4.6,-3.451 -7.514,-5.491 -7.514,-5.491Z" style="fill:#513efa;"/></g><g transform="matrix(-1.29551,0,0,1.29551,953.156,-100.369)"><path d="M606.841,244.128c0,0 2.914,2.04 7.514,5.491c3.107,2.331 6.901,5.149 11.022,8.485c2.307,1.868 4.66,3.866 7.026,5.979c1.515,1.352 3.029,2.737 4.477,4.193c1.449,1.457 2.827,2.977 4.168,4.502c2.099,2.385 4.049,4.774 5.921,7.084c2.099,2.589 3.996,5.022 5.725,7.28c5.082,6.634 8.334,11.173 8.334,11.173c-0,0 -4.539,-3.252 -11.173,-8.334c-2.258,-1.729 -4.691,-3.626 -7.28,-5.725c-2.31,-1.872 -4.699,-3.822 -7.084,-5.921c-1.525,-1.341 -3.045,-2.719 -4.502,-4.168c-1.456,-1.448 -2.841,-2.962 -4.193,-4.477c-2.113,-2.366 -4.111,-4.719 -5.979,-7.026c-3.336,-4.121 -6.154,-7.915 -8.485,-11.022c-3.451,-4.6 -5.491,-7.514 -5.491,-7.514Z" style="fill:#513efa;"/></g></g></g></g></svg>